# xmcd
#
# Track frame offsets: 
#        150
#        28084
#        42959
#        58439
#        69469
#        84285
#        102655
#        121765
#        140129
#        158189
#        175698
#        194939
#        212521
#        229519
#
# Disc length: 3303 seconds
#
# Revision: 0
# Processed by: cddbd v1.5.2PL0 Copyright (c) Steve Scherf et al.
# Submitted via: ExactAudioCopy v1.3
#
DISCID=cb0ce50e
DTITLE=La compagnie créole - Les forces de l'amour
DYEAR=2019
DGENRE=Gospel
TTITLE0=Les forces de l'amour (Hommage à Madiba)
TTITLE1=La chapelle de Harlem
TTITLE2=Viens pleurer (Viens pleurer aux creux de mes bras)
TTITLE3=Mèsi Bondié (Mizè ya fini)
TTITLE4=My Father's House (La maison de notre père)
TTITLE5=Mon pays (Mon pays et la paix)
TTITLE6=Zanmi an nou chanté lanmou (Amis, chantons l'amour)
TTITLE7=Glory Glory Alleluia
TTITLE8=J'ai prié (Prière pour la planète)
TTITLE9=Van lévé (Le son de l'espoir)
TTITLE10=You Are the Light (Le guide des lumières)
TTITLE11=My Special Prayer (Ma divine prière)
TTITLE12=Amazing Grace (Nous nous reverrons)
TTITLE13=Les trois cloches
EXTD=
EXTT0=
EXTT1=
EXTT2=
EXTT3=
EXTT4=
EXTT5=
EXTT6=
EXTT7=
EXTT8=
EXTT9=
EXTT10=
EXTT11=
EXTT12=
EXTT13=
PLAYORDER=
